<svg width="56" height="40" viewBox="0 0 56 40" fill="none" xmlns="http://www.w3.org/2000/svg">
<path fill-rule="evenodd" clip-rule="evenodd" d="M11.8205 29.0281C9.79397 31.868 5.9648 34.9212 0.754353 37.4678C-0.602921 38.1291 0.00771713 40.177 1.50365 39.9877C12.4579 38.6011 19.5589 33.8039 23.4361 26.6709C24.8389 24.0605 25.7961 21.2342 26.2679 18.3086C26.5853 16.4073 26.6679 14.9807 26.6679 13.3328C26.6679 9.79671 25.2632 6.40546 22.7628 3.90508C20.2625 1.4047 16.8712 0 13.3352 0C9.79908 0 6.40784 1.4047 3.90746 3.90508C1.40709 6.40546 0.002388 9.79671 0.002388 13.3328C0.002388 20.6952 6.0688 26.6709 13.0365 26.6709C12.6685 27.6789 12.5832 27.9642 11.8205 29.0281ZM41.1526 29.0281C39.1261 31.868 35.2969 34.9212 30.0864 37.4678C28.7292 38.1291 29.3398 40.177 30.8357 39.9877C41.7899 38.6011 48.891 33.8039 52.7681 26.6709C54.171 24.0605 55.1281 21.2342 55.6 18.3086C55.9173 16.4073 56 14.9807 56 13.3328C56 11.5819 55.6551 9.84816 54.9851 8.23055C54.3151 6.61294 53.333 5.14315 52.0949 3.90508C50.8569 2.66702 49.3871 1.68493 47.7695 1.0149C46.1519 0.34486 44.4181 0 42.6672 0C40.9164 0 39.1826 0.34486 37.565 1.0149C35.9474 1.68493 34.4776 2.66702 33.2395 3.90508C32.0015 5.14315 31.0194 6.61294 30.3494 8.23055C29.6793 9.84816 29.3345 11.5819 29.3345 13.3328C29.3345 20.6952 35.4009 26.6709 42.3686 26.6709C42.0006 27.6789 41.9153 27.9642 41.1526 29.0281Z" fill="#F47D34"/>
</svg>
