<svg width="56" height="40" viewBox="0 0 56 40" fill="none" xmlns="http://www.w3.org/2000/svg">
<path d="M30.7734 39.4922C29.8689 39.6067 29.4804 38.4104 30.2295 37.959L30.3057 37.917C35.5595 35.3492 39.467 32.2499 41.5586 29.3193C41.9459 28.779 42.177 28.4162 42.3574 28.0498C42.5349 27.6895 42.6583 27.3348 42.8379 26.8428L43.083 26.1709H42.3682C35.6821 26.1707 29.8341 20.4242 29.834 13.333C29.834 11.6478 30.1666 9.97882 30.8115 8.42188C31.4564 6.86507 32.4013 5.45035 33.5928 4.25879C34.7844 3.06715 36.1999 2.12147 37.7568 1.47656C39.3136 0.831824 40.982 0.500032 42.667 0.5C44.3522 0.5 46.0212 0.831679 47.5781 1.47656C49.1351 2.12147 50.5496 3.06716 51.7412 4.25879C52.9328 5.45042 53.8785 6.86493 54.5234 8.42188C55.1683 9.9788 55.5 11.6478 55.5 13.333L55.4961 13.9326C55.4763 15.315 55.3795 16.5907 55.1064 18.2266V18.2285C54.6436 21.0984 53.706 23.8719 52.3301 26.4326L52.3291 26.4316C48.543 33.3971 41.5993 38.1207 30.7725 39.4912L30.7734 39.4922ZM1.44043 39.4912C0.536141 39.6053 0.148379 38.4103 0.897461 37.959L0.973633 37.917C6.22749 35.3492 10.1349 32.2499 12.2266 29.3193C12.6139 28.7789 12.8449 28.4162 13.0254 28.0498C13.2028 27.6895 13.3262 27.3348 13.5059 26.8428L13.751 26.1709H13.0361C6.35002 26.1707 0.502075 20.4243 0.501953 13.333C0.501953 9.92964 1.85427 6.66538 4.26074 4.25879C6.66731 1.85222 9.93157 0.500051 13.335 0.5C16.7384 0.5 20.0026 1.85218 22.4092 4.25879C24.8158 6.6654 26.168 9.92955 26.168 13.333C26.168 14.9585 26.0864 16.3573 25.7744 18.2266V18.2285C25.3115 21.0984 24.3739 23.8719 22.998 26.4326L22.9971 26.4316C19.211 33.3971 12.2672 38.1207 1.44043 39.4912Z" stroke="#F47D34"/>
</svg>
