<svg width="11" height="11" viewBox="0 0 11 11" fill="none" xmlns="http://www.w3.org/2000/svg">
<path d="M5.25 0C2.35053 0 0 2.35053 0 5.25C0 7.71204 1.69512 9.77802 3.98181 10.3454V6.8544H2.89926V5.25H3.98181V4.55868C3.98181 2.77179 4.79052 1.94355 6.54486 1.94355C6.8775 1.94355 7.45143 2.00886 7.68621 2.07396V3.52821C7.56231 3.51519 7.34706 3.50868 7.07973 3.50868C6.21894 3.50868 5.8863 3.83481 5.8863 4.68258V5.25H7.60116L7.30653 6.8544H5.8863V10.4616C8.48589 10.1476 10.5002 7.93422 10.5002 5.25C10.5 2.35053 8.14947 0 5.25 0Z" fill="#181B1D"/>
</svg>
