<svg width="11" height="11" viewBox="0 0 11 11" fill="none" xmlns="http://www.w3.org/2000/svg">
<g clip-path="url(#clip0_25030_1282)">
<path d="M5.25 0.94541C6.65274 0.94541 6.81885 0.951562 7.37051 0.976172C7.8832 0.99873 8.16006 1.08486 8.34463 1.15664C8.58867 1.25098 8.76504 1.36582 8.94756 1.54834C9.13213 1.73291 9.24492 1.90723 9.33926 2.15127C9.41104 2.33584 9.49717 2.61475 9.51973 3.12539C9.54434 3.6791 9.55049 3.84522 9.55049 5.2459C9.55049 6.64863 9.54434 6.81475 9.51973 7.36641C9.49717 7.8791 9.41104 8.15596 9.33926 8.34053C9.24492 8.58457 9.13008 8.76094 8.94756 8.94346C8.76299 9.12803 8.58867 9.24082 8.34463 9.33516C8.16006 9.40693 7.88115 9.49307 7.37051 9.51563C6.8168 9.54024 6.65068 9.54639 5.25 9.54639C3.84727 9.54639 3.68115 9.54024 3.12949 9.51563C2.6168 9.49307 2.33994 9.40693 2.15537 9.33516C1.91133 9.24082 1.73496 9.12598 1.55244 8.94346C1.36787 8.75889 1.25508 8.58457 1.16074 8.34053C1.08896 8.15596 1.00283 7.87705 0.980274 7.36641C0.955664 6.8127 0.949512 6.64658 0.949512 5.2459C0.949512 3.84316 0.955664 3.67705 0.980274 3.12539C1.00283 2.6127 1.08896 2.33584 1.16074 2.15127C1.25508 1.90723 1.36992 1.73086 1.55244 1.54834C1.73701 1.36377 1.91133 1.25098 2.15537 1.15664C2.33994 1.08486 2.61885 0.99873 3.12949 0.976172C3.68115 0.951562 3.84727 0.94541 5.25 0.94541ZM5.25 0C3.82471 0 3.64629 0.00615234 3.08643 0.0307617C2.52861 0.0553711 2.14512 0.145605 1.81289 0.274805C1.46631 0.410156 1.17305 0.588574 0.881836 0.881836C0.588574 1.17305 0.410156 1.46631 0.274805 1.81084C0.145605 2.14512 0.0553711 2.52656 0.0307617 3.08438C0.00615234 3.64629 0 3.82471 0 5.25C0 6.67529 0.00615234 6.85371 0.0307617 7.41357C0.0553711 7.97139 0.145605 8.35488 0.274805 8.68711C0.410156 9.03369 0.588574 9.32695 0.881836 9.61816C1.17305 9.90938 1.46631 10.0898 1.81084 10.2231C2.14512 10.3523 2.52656 10.4426 3.08438 10.4672C3.64424 10.4918 3.82266 10.4979 5.24795 10.4979C6.67324 10.4979 6.85166 10.4918 7.41152 10.4672C7.96934 10.4426 8.35283 10.3523 8.68506 10.2231C9.02959 10.0898 9.32285 9.90938 9.61406 9.61816C9.90527 9.32695 10.0857 9.03369 10.219 8.68916C10.3482 8.35488 10.4385 7.97344 10.4631 7.41563C10.4877 6.85576 10.4938 6.67734 10.4938 5.25205C10.4938 3.82676 10.4877 3.64834 10.4631 3.08848C10.4385 2.53066 10.3482 2.14717 10.219 1.81494C10.0898 1.46631 9.91143 1.17305 9.61817 0.881836C9.32695 0.590625 9.03369 0.410156 8.68916 0.276855C8.35488 0.147656 7.97344 0.0574219 7.41563 0.0328125C6.85371 0.00615235 6.67529 0 5.25 0Z" fill="#181B1D"/>
<path d="M5.25147 2.55273C3.7626 2.55273 2.55469 3.76064 2.55469 5.24951C2.55469 6.73838 3.7626 7.94629 5.25147 7.94629C6.74033 7.94629 7.94824 6.73838 7.94824 5.24951C7.94824 3.76064 6.74033 2.55273 5.25147 2.55273ZM5.25147 6.99883C4.28555 6.99883 3.50215 6.21543 3.50215 5.24951C3.50215 4.28359 4.28555 3.5002 5.25147 3.5002C6.21738 3.5002 7.00078 4.28359 7.00078 5.24951C7.00078 6.21543 6.21738 6.99883 5.25147 6.99883Z" fill="#181B1D"/>
<path d="M8.68105 2.446C8.68105 2.79463 8.39805 3.07559 8.05147 3.07559C7.70283 3.07559 7.42188 2.79258 7.42188 2.446C7.42188 2.09736 7.70488 1.81641 8.05147 1.81641C8.39805 1.81641 8.68105 2.09941 8.68105 2.446Z" fill="#181B1D"/>
</g>
<defs>
<clipPath id="clip0_25030_1282">
<rect width="10.5" height="10.5" fill="white"/>
</clipPath>
</defs>
</svg>
