<svg width="11" height="11" viewBox="0 0 11 11" fill="none" xmlns="http://www.w3.org/2000/svg">
<path d="M9.72275 0H0.775195C0.346582 0 0 0.338379 0 0.756738V9.74121C0 10.1596 0.346582 10.5 0.775195 10.5H9.72275C10.1514 10.5 10.5 10.1596 10.5 9.74326V0.756738C10.5 0.338379 10.1514 0 9.72275 0ZM3.11514 8.94756H1.55654V3.93545H3.11514V8.94756ZM2.33584 3.25254C1.83545 3.25254 1.43145 2.84854 1.43145 2.3502C1.43145 1.85186 1.83545 1.44785 2.33584 1.44785C2.83418 1.44785 3.23818 1.85186 3.23818 2.3502C3.23818 2.84648 2.83418 3.25254 2.33584 3.25254ZM8.94756 8.94756H7.39102V6.51123C7.39102 5.93086 7.38076 5.18232 6.58096 5.18232C5.7709 5.18232 5.64785 5.81602 5.64785 6.47022V8.94756H4.09336V3.93545H5.58633V4.62041H5.60684C5.81396 4.22666 6.32256 3.81035 7.0793 3.81035C8.65635 3.81035 8.94756 4.84805 8.94756 6.19746V8.94756V8.94756Z" fill="#181B1D"/>
</svg>
