<svg width="21" height="21" viewBox="0 0 21 21" fill="none" xmlns="http://www.w3.org/2000/svg">
<path d="M10.0131 18.5878C8.72652 18.5878 2.70312 12.7398 2.70312 7.97791C2.70312 6.03919 3.47328 4.17988 4.84416 2.809C6.21504 1.43812 8.07435 0.667969 10.0131 0.667969C11.9518 0.667969 13.8111 1.43812 15.182 2.809C16.5529 4.17988 17.323 6.03919 17.323 7.97791C17.323 12.7565 11.2996 18.5878 10.0131 18.5878ZM10.0131 1.91275C8.40593 1.91496 6.86538 2.55494 5.72975 3.69214C4.59412 4.82934 3.95626 6.37078 3.95626 7.97791C3.95626 11.9378 8.8936 16.7833 10.0131 17.3096C11.1325 16.7833 16.0699 11.9378 16.0699 7.97791C16.0699 6.37078 15.432 4.82934 14.2964 3.69214C13.1608 2.55494 11.6202 1.91496 10.0131 1.91275Z" fill="white"/>
<path d="M10.0115 11.4878C9.30925 11.4878 8.62279 11.2796 8.03891 10.8894C7.45502 10.4993 6.99994 9.94477 6.73121 9.296C6.46248 8.64722 6.39216 7.93332 6.52916 7.24459C6.66616 6.55585 7.00432 5.9232 7.50087 5.42665C7.99742 4.9301 8.63007 4.59194 9.31881 4.45494C10.0075 4.31794 10.7214 4.38826 11.3702 4.65699C12.019 4.92572 12.5735 5.3808 12.9637 5.96469C13.3538 6.54857 13.562 7.23503 13.562 7.93726C13.5598 8.87825 13.185 9.78006 12.5197 10.4454C11.8543 11.1108 10.9525 11.4856 10.0115 11.4878ZM10.0115 5.63985C9.5571 5.63985 9.11292 5.77459 8.73511 6.02704C8.3573 6.27948 8.06284 6.63829 7.88895 7.05808C7.71507 7.47788 7.66957 7.93981 7.75822 8.38546C7.84686 8.83112 8.06567 9.24048 8.38697 9.56178C8.70827 9.88308 9.11763 10.1019 9.56328 10.1905C10.0089 10.2792 10.4709 10.2337 10.8907 10.0598C11.3105 9.88591 11.6693 9.59144 11.9217 9.21363C12.1742 8.83583 12.3089 8.39165 12.3089 7.93726C12.3089 7.32795 12.0668 6.7436 11.636 6.31275C11.2051 5.8819 10.6208 5.63985 10.0115 5.63985Z" fill="white"/>
</svg>
