<svg width="21" height="19" viewBox="0 0 21 19" fill="none" xmlns="http://www.w3.org/2000/svg">
<path d="M15.873 0H4.17711C3.06968 0.00132653 2.00798 0.44184 1.22491 1.22491C0.44184 2.00798 0.00132653 3.06968 0 4.17711L0 14.2022C0.00132653 15.3096 0.44184 16.3713 1.22491 17.1544C2.00798 17.9374 3.06968 18.378 4.17711 18.3793H15.873C16.9804 18.378 18.0421 17.9374 18.8252 17.1544C19.6083 16.3713 20.0488 15.3096 20.0501 14.2022V4.17711C20.0488 3.06968 19.6083 2.00798 18.8252 1.22491C18.0421 0.44184 16.9804 0.00132653 15.873 0ZM4.17711 1.67084H15.873C16.3733 1.67183 16.8618 1.82249 17.2757 2.10343C17.6895 2.38437 18.0099 2.78275 18.1955 3.24729L11.7978 9.64578C11.327 10.1147 10.6896 10.378 10.0251 10.378C9.36055 10.378 8.72312 10.1147 8.2523 9.64578L1.85464 3.24729C2.04022 2.78275 2.36058 2.38437 2.77448 2.10343C3.18837 1.82249 3.67687 1.67183 4.17711 1.67084ZM15.873 16.7084H4.17711C3.51241 16.7084 2.87493 16.4444 2.40491 15.9744C1.9349 15.5044 1.67084 14.8669 1.67084 14.2022V5.43024L7.07101 10.8271C7.85516 11.6092 8.91751 12.0485 10.0251 12.0485C11.1326 12.0485 12.195 11.6092 12.9791 10.8271L18.3793 5.43024V14.2022C18.3793 14.8669 18.1152 15.5044 17.6452 15.9744C17.1752 16.4444 16.5377 16.7084 15.873 16.7084Z" fill="white"/>
</svg>
