<svg width="21" height="21" viewBox="0 0 21 21" fill="none" xmlns="http://www.w3.org/2000/svg">
<g clip-path="url(#clip0_25033_3183)">
<path d="M10.8591 0.836756C10.8591 0.615188 10.9471 0.402696 11.1038 0.246024C11.2605 0.0893516 11.4729 0.00133414 11.6945 0.00133414C13.9094 0.00376655 16.033 0.884722 17.5991 2.45091C19.1653 4.01711 20.0463 6.14062 20.0487 8.35555C20.0487 8.57712 19.9607 8.78961 19.804 8.94629C19.6474 9.10296 19.4349 9.19098 19.2133 9.19098C18.9917 9.19098 18.7792 9.10296 18.6226 8.94629C18.4659 8.78961 18.3779 8.57712 18.3779 8.35555C18.3759 6.58362 17.6711 4.88484 16.4182 3.63189C15.1652 2.37895 13.4664 1.67417 11.6945 1.67218C11.4729 1.67218 11.2605 1.58416 11.1038 1.42749C10.9471 1.27082 10.8591 1.05832 10.8591 0.836756ZM11.6945 5.01387C12.5808 5.01387 13.4308 5.36594 14.0574 5.99262C14.6841 6.61931 15.0362 7.46928 15.0362 8.35555C15.0362 8.57712 15.1242 8.78961 15.2809 8.94629C15.4376 9.10296 15.6501 9.19098 15.8716 9.19098C16.0932 9.19098 16.3057 9.10296 16.4624 8.94629C16.619 8.78961 16.707 8.57712 16.707 8.35555C16.7057 7.02656 16.1772 5.75237 15.2374 4.81262C14.2977 3.87288 13.0235 3.34435 11.6945 3.34302C11.4729 3.34302 11.2605 3.43104 11.1038 3.58771C10.9471 3.74438 10.8591 3.95688 10.8591 4.17844C10.8591 4.40001 10.9471 4.6125 11.1038 4.76918C11.2605 4.92585 11.4729 5.01387 11.6945 5.01387ZM19.291 13.9855C19.7751 14.4709 20.047 15.1286 20.047 15.8142C20.047 16.4998 19.7751 17.1575 19.291 17.6429L18.5308 18.5193C11.6887 25.0698 -4.9613 8.42406 1.48816 1.56023L2.4489 0.72481C2.93492 0.254197 3.58668 -0.00614365 4.26319 0.000110117C4.93969 0.00636389 5.58653 0.27871 6.06377 0.758226C6.08967 0.784124 7.6377 2.79499 7.6377 2.79499C8.09704 3.27755 8.35274 3.91857 8.35165 4.5848C8.35056 5.25102 8.09277 5.8912 7.63185 6.37226L6.66444 7.58864C7.19981 8.88948 7.98696 10.0717 8.98065 11.0674C9.97434 12.0631 11.155 12.8526 12.4547 13.3906L13.6786 12.4174C14.1598 11.9568 14.7998 11.6993 15.4659 11.6984C16.1319 11.6975 16.7727 11.9532 17.2551 12.4124C17.2551 12.4124 19.2651 13.9596 19.291 13.9855ZM18.1415 15.2002C18.1415 15.2002 16.1423 13.6622 16.1164 13.6363C15.9443 13.4656 15.7117 13.3699 15.4694 13.3699C15.227 13.3699 14.9944 13.4656 14.8223 13.6363C14.7998 13.6596 13.1147 15.0022 13.1147 15.0022C13.0012 15.0926 12.866 15.1518 12.7226 15.1741C12.5792 15.1963 12.4325 15.1809 12.2968 15.1292C10.613 14.5022 9.0836 13.5207 7.81217 12.2512C6.54074 10.9816 5.557 9.45366 4.92759 7.77076C4.87179 7.63329 4.85359 7.48345 4.87488 7.33662C4.89617 7.1898 4.95618 7.05129 5.04873 6.93534C5.04873 6.93534 6.39125 5.24945 6.41381 5.22773C6.58446 5.05562 6.68021 4.82307 6.68021 4.5807C6.68021 4.33833 6.58446 4.10577 6.41381 3.93366C6.38791 3.9086 4.8499 1.90777 4.8499 1.90777C4.67521 1.75113 4.44723 1.66725 4.21268 1.6733C3.97813 1.67936 3.75478 1.7749 3.58841 1.94035L2.62768 2.77577C-2.08577 8.44327 12.3428 22.0715 17.3094 17.3781L18.0704 16.5009C18.2488 16.3357 18.3559 16.1076 18.3692 15.8649C18.3824 15.6222 18.3008 15.3838 18.1415 15.2002Z" fill="white"/>
</g>
<defs>
<clipPath id="clip0_25033_3183">
<rect width="20.0501" height="20.0501" fill="white"/>
</clipPath>
</defs>
</svg>
