<svg width="12" height="10" viewBox="0 0 12 10" fill="none" xmlns="http://www.w3.org/2000/svg">
<path d="M3.89763 7.02659C3.2112 6.21965 2.37834 5.56056 1.35215 5.04932C1.22167 4.9822 1.07649 4.94647 0.928814 4.94513C0.111908 4.94513 -0.428094 6.10761 0.450956 6.54561C1.86644 7.25068 2.76191 8.2117 3.47787 9.5814C3.62501 9.86324 3.93954 10 4.2543 10C4.64763 10 5.04168 9.78631 5.11002 9.37464C5.64883 6.1247 8.13955 2.87384 11.391 1.72731C12.3555 1.38702 12.0791 0 11.226 0C11.1298 0 11.0262 0.0175572 10.9162 0.056368C7.73478 1.17795 5.06573 3.90371 3.89763 7.02659Z" fill="#30B102"/>
</svg>
