<svg width="15" height="15" viewBox="0 0 15 15" fill="none" xmlns="http://www.w3.org/2000/svg">
<path d="M8.68371 4.17307L7.56627 1.75195L5.3314 4.98011L2.35156 7.40122L4.95892 9.41882L7.19379 13.0505L8.68371 9.82233L12.036 6.9977L8.68371 4.17307Z" fill="#30B102"/>
<path d="M2.07871 7.43395C4.75857 6.84054 6.85286 4.57171 7.4006 1.66855L6.12332 1.38576C5.68016 3.73457 3.98578 5.57018 1.81763 6.0502L2.07871 7.43395ZM2.07871 6.83682C2.13435 6.84917 2.19949 6.88855 2.24651 6.95618C2.28884 7.01704 2.30368 7.08168 2.30368 7.13535C2.30368 7.1891 2.28884 7.25374 2.24651 7.31451C2.19949 7.38222 2.13435 7.4216 2.07871 7.43395L1.81763 6.0502C0.727455 6.29167 0.727455 7.97911 1.81763 8.22049L2.07871 6.83682ZM7.4006 12.6021C6.85286 9.69898 4.75857 7.43016 2.07871 6.83682L1.81763 8.22049C3.98578 8.7006 5.68016 10.5362 6.12332 12.885L7.4006 12.6021ZM6.84938 12.6021C6.86077 12.5419 6.89719 12.4713 6.95959 12.4204C7.01578 12.3746 7.07539 12.3584 7.12498 12.3584C7.17461 12.3584 7.23425 12.3746 7.29035 12.4204C7.35285 12.4713 7.3892 12.5419 7.4006 12.6021L6.12332 12.885C6.34616 14.066 7.90382 14.066 8.12664 12.885L6.84938 12.6021ZM12.1712 6.83682C9.4914 7.43016 7.3971 9.69898 6.84938 12.6021L8.12664 12.885C8.56981 10.5362 10.2642 8.7006 12.4323 8.22049L12.1712 6.83682ZM12.1712 7.43395C12.1157 7.4216 12.0505 7.38222 12.0035 7.31451C11.9612 7.25374 11.9463 7.1891 11.9463 7.13535C11.9463 7.08168 11.9612 7.01704 12.0035 6.95618C12.0505 6.88855 12.1157 6.84917 12.1712 6.83682L12.4323 8.22049C13.5225 7.97911 13.5225 6.29167 12.4323 6.0502L12.1712 7.43395ZM6.84938 1.66855C7.3971 4.57171 9.4914 6.84054 12.1712 7.43395L12.4323 6.0502C10.2642 5.57018 8.56981 3.73457 8.12664 1.38576L6.84938 1.66855ZM8.12664 1.38576C7.90382 0.204745 6.34616 0.204745 6.12332 1.38576L7.4006 1.66855C7.3892 1.72884 7.35285 1.79937 7.29035 1.85038C7.23425 1.89622 7.17461 1.91228 7.12498 1.91228C7.07539 1.91228 7.01578 1.89622 6.95959 1.85038C6.89719 1.79937 6.86077 1.72884 6.84938 1.66855L8.12664 1.38576Z" fill="#30B102"/>
</svg>
