<svg width="11" height="8" viewBox="0 0 11 8" fill="none" xmlns="http://www.w3.org/2000/svg">
<path d="M10.3954 1.59346C10.3954 1.59346 10.2929 0.869531 9.97705 0.55166C9.57715 0.133301 9.13008 0.13125 8.925 0.106641C7.45664 -5.86733e-08 5.25205 0 5.25205 0H5.24795C5.24795 0 3.04336 -5.86733e-08 1.575 0.106641C1.36992 0.13125 0.922852 0.133301 0.522949 0.55166C0.207129 0.869531 0.106641 1.59346 0.106641 1.59346C0.106641 1.59346 0 2.44453 0 3.29356V4.08926C0 4.93828 0.10459 5.78936 0.10459 5.78936C0.10459 5.78936 0.207129 6.51328 0.520898 6.83115C0.920801 7.24951 1.4458 7.23516 1.67959 7.28027C2.52041 7.36025 5.25 7.38486 5.25 7.38486C5.25 7.38486 7.45664 7.38076 8.925 7.27617C9.13008 7.25156 9.57715 7.24951 9.97705 6.83115C10.2929 6.51328 10.3954 5.78936 10.3954 5.78936C10.3954 5.78936 10.5 4.94033 10.5 4.08926V3.29356C10.5 2.44453 10.3954 1.59346 10.3954 1.59346ZM4.16514 5.05518V2.1041L7.00137 3.58477L4.16514 5.05518Z" fill="#181B1D"/>
</svg>
